<?xml version="1.0" encoding="utf-8"?>
<!-- Generator: Adobe Illustrator 19.0.0, SVG Export Plug-In . SVG Version: 6.00 Build 0)  -->
<svg version="1.1" baseProfile="basic" id="Layer_1"
	 xmlns="http://www.w3.org/2000/svg" xmlns:xlink="http://www.w3.org/1999/xlink" x="0px" y="0px" width="595.3px" height="841.9px"
	 viewBox="0 0 595.3 841.9" xml:space="preserve">
<style type="text/css">
	@font-face {
  	font-family: 'HelveticaNeueLTStd-ThCn';
  	src: url('HelveticaNeueLTStd-ThCn.otf');
	}
	.st0{fill:none;stroke:#DCDDDE;stroke-miterlimit:10;}
	.st1{font-family:"HelveticaNeueLTStd-ThCn";text-anchor:'end'}
	.st2{font-size:35.7743px;}
	.st3{fill:none;stroke:#000000;stroke-width:1;stroke-miterlimit:10;}
	.st4{fill:none;stroke:#000000;stroke-width:1;stroke-miterlimit:10;}
</style>
<g id="XMLID_2_">
	<g id="XMLID_79_">
		<line id="XMLID_80_" class="st0" x1="36.8" y1="806.3" x2="576" y2="806.3"/>
	</g>
	<g id="XMLID_77_">
		<line id="XMLID_78_" class="st0" x1="36.8" y1="778.3" x2="576" y2="778.3"/>
	</g>
	<g id="XMLID_75_">
		<line id="XMLID_76_" class="st0" x1="36.8" y1="750.3" x2="576" y2="750.3"/>
	</g>
	<g id="XMLID_73_">
		<line id="XMLID_74_" class="st0" x1="36.8" y1="722.3" x2="576" y2="722.3"/>
	</g>
	<g id="XMLID_71_">
		<line id="XMLID_72_" class="st0" x1="36.8" y1="694.3" x2="576" y2="694.3"/>
	</g>
	<g id="XMLID_69_">
		<line id="XMLID_70_" class="st0" x1="36.8" y1="666.3" x2="576" y2="666.3"/>
	</g>
	<g id="XMLID_67_">
		<line id="XMLID_68_" class="st0" x1="36.8" y1="638.3" x2="576" y2="638.3"/>
	</g>
	<g id="XMLID_65_">
		<line id="XMLID_66_" class="st0" x1="36.8" y1="610.3" x2="576" y2="610.3"/>
	</g>
	<g id="XMLID_63_">
		<line id="XMLID_64_" class="st0" x1="36.8" y1="582.3" x2="576" y2="582.3"/>
	</g>
	<g id="XMLID_61_">
		<line id="XMLID_62_" class="st0" x1="36.8" y1="554.3" x2="576" y2="554.3"/>
	</g>
	<g id="XMLID_59_">
		<line id="XMLID_60_" class="st0" x1="36.8" y1="526.3" x2="576" y2="526.3"/>
	</g>
	<g id="XMLID_57_">
		<line id="XMLID_58_" class="st0" x1="36.8" y1="498.3" x2="576" y2="498.3"/>
	</g>
	<g id="XMLID_55_">
		<line id="XMLID_56_" class="st0" x1="36.8" y1="470.3" x2="576" y2="470.3"/>
	</g>
	<g id="XMLID_53_">
		<line id="XMLID_54_" class="st0" x1="36.8" y1="442.3" x2="576" y2="442.3"/>
	</g>
	<g id="XMLID_51_">
		<line id="XMLID_52_" class="st0" x1="36.8" y1="414.3" x2="576" y2="414.3"/>
	</g>
	<g id="XMLID_49_">
		<line id="XMLID_50_" class="st0" x1="36.8" y1="386.3" x2="576" y2="386.3"/>
	</g>
	<g id="XMLID_47_">
		<line id="XMLID_48_" class="st0" x1="36.8" y1="358.3" x2="576" y2="358.3"/>
	</g>
	<g id="XMLID_45_">
		<line id="XMLID_46_" class="st0" x1="36.8" y1="330.3" x2="576" y2="330.3"/>
	</g>
	<g id="XMLID_43_">
		<line id="XMLID_44_" class="st0" x1="36.8" y1="302.3" x2="576" y2="302.3"/>
	</g>
	<g id="XMLID_41_">
		<line id="XMLID_42_" class="st0" x1="36.8" y1="274.3" x2="576" y2="274.3"/>
	</g>
	<g id="XMLID_39_">
		<line id="XMLID_40_" class="st0" x1="36.8" y1="246.3" x2="576" y2="246.3"/>
	</g>
	<g id="XMLID_37_">
		<line id="XMLID_38_" class="st0" x1="36.8" y1="218.3" x2="576" y2="218.3"/>
	</g>
	<g id="XMLID_35_">
		<line id="XMLID_36_" class="st0" x1="36.8" y1="190.3" x2="576" y2="190.3"/>
	</g>
	<g id="XMLID_33_">
		<line id="XMLID_34_" class="st0" x1="36.8" y1="162.3" x2="576" y2="162.3"/>
	</g>
	<g id="XMLID_31_">
		<line id="XMLID_32_" class="st0" x1="36.8" y1="134.3" x2="576" y2="134.3"/>
	</g>
	<g id="XMLID_16_">
		<line id="XMLID_30_" class="st0" x1="36.8" y1="106.3" x2="576" y2="106.3"/>
	</g>
</g>
<text id="XMLID_4_" transform="matrix(1 0 0 1 576 61.1167)" class="st1 st2">16.Januar, Mittwoch</text>
<line id="XMLID_5_" class="st3" x1="23.8" y1="69.4" x2="576" y2="69.4"/>
<g id="XMLID_6_">
	<g id="XMLID_19_">
		<rect id="XMLID_20_" x="36.8" y="666.3" class="st4" width="269.6" height="140"/>
	</g>
	<g id="XMLID_14_">
		<rect id="XMLID_15_" x="36.8" y="526.3" class="st4" width="269.6" height="140"/>
	</g>
	<g id="XMLID_12_">
		<rect id="XMLID_13_" x="36.8" y="386.3" class="st4" width="269.6" height="140"/>
	</g>
	<g id="XMLID_10_">
		<rect id="XMLID_11_" x="36.8" y="246.3" class="st4" width="269.6" height="140"/>
	</g>
	<g id="XMLID_7_">
		<rect id="XMLID_9_" x="36.8" y="106.3" class="st4" width="269.6" height="140"/>
	</g>
</g>
<g id="XMLID_8_">
	<g id="XMLID_28_">
		<rect id="XMLID_29_" x="306.4" y="666.3" class="st4" width="269.6" height="140"/>
	</g>
	<g id="XMLID_26_">
		<rect id="XMLID_27_" x="306.4" y="526.3" class="st4" width="269.6" height="140"/>
	</g>
	<g id="XMLID_24_">
		<rect id="XMLID_25_" x="306.4" y="386.3" class="st4" width="269.6" height="140"/>
	</g>
	<g id="XMLID_22_">
		<rect id="XMLID_23_" x="306.4" y="246.3" class="st4" width="269.6" height="140"/>
	</g>
	<g id="XMLID_17_">
		<rect id="XMLID_21_" x="306.4" y="106.3" class="st4" width="269.6" height="140"/>
	</g>
</g>
</svg>
